# xmcd CD database file
#
# Track frame offsets:
#	150
#	16921
#	25065
#	86762
#	115425
#	122955
#	141296
#
# Disc length: 2521 seconds
#
# Revision: 0
# Processed by: cddbd v1.5.2PL0 Copyright (c) Steve Scherf et al.
# Submitted via: CDex 1.51
#
DISCID=5b09d707
DTITLE=Rhapsody - Rain Of A Thousand Flames
DYEAR=2001
DGENRE=Progressive Metal
TTITLE0=Rain Of A Thousand Flames
TTITLE1=Deadly Omen
TTITLE2=Queen Of The Dark Horizons
TTITLE3=Tears Of A Dying Angel
TTITLE4=Elnor's Magic Valley
TTITLE5=The Poem's Evil Page
TTITLE6=The Wizard's Last Rhymes
EXTD=YEAR: 2001
EXTT0=
EXTT1=
EXTT2=
EXTT3=
EXTT4=
EXTT5=
EXTT6=
PLAYORDER=
